<?xml version="1.0" standalone="no"?>
<!DOCTYPE svg PUBLIC "-//W3C//DTD SVG 20010904//EN"
 "http://www.w3.org/TR/2001/REC-SVG-20010904/DTD/svg10.dtd">
<svg version="1.0" xmlns="http://www.w3.org/2000/svg"
 width="207.000000pt" height="207.000000pt" viewBox="0 0 207.000000 207.000000"
 preserveAspectRatio="xMidYMid meet">
<metadata>
Created by potrace 1.11, written by Peter Selinger 2001-2013
</metadata>
<g transform="translate(0.000000,207.000000) scale(0.100000,-0.100000)"
fill="#000000" stroke="none">
<path d="M567 1583 c-2 -5 -3 -246 -3 -538 l1 -530 93 -3 92 -3 1 28 c1 15 1
31 0 36 -2 13 8 8 55 -28 83 -63 220 -65 305 -3 55 39 64 50 95 116 47 99 58
265 25 389 -22 85 -49 131 -102 177 -90 77 -256 79 -336 4 -17 -16 -23 -18
-24 -7 0 8 0 94 0 192 l0 177 -99 0 c-54 0 -101 -3 -103 -7z m389 -473 c64
-23 93 -105 88 -249 -3 -109 -31 -171 -85 -190 -66 -23 -143 -4 -174 42 -24
38 -25 316 0 353 30 46 107 66 171 44z"/>
<path d="M1375 1053 l0 -538 93 -3 92 -3 1 28 c1 15 1 31 0 36 -2 13 11 7 43
-20 47 -40 94 -55 166 -55 186 1 290 141 290 392 0 191 -61 319 -177 370 -85
38 -190 30 -260 -20 l-43 -30 0 190 0 190 -103 0 -102 0 0 -537z m418 41 c42
-30 62 -95 62 -199 0 -49 -4 -107 -8 -127 -22 -104 -156 -143 -236 -69 l-31
29 0 159 c0 175 5 193 64 219 40 19 116 12 149 -12z"/>
<path d="M119 1437 c-1 -12 -1 -55 -1 -95 1 -50 -3 -72 -11 -71 -7 1 -32 1
-57 0 l-45 -1 2 -57 c1 -32 2 -66 2 -75 1 -15 10 -18 54 -18 l53 0 1 -222 c0
-136 5 -240 12 -266 30 -109 125 -151 289 -127 l43 6 -3 77 -3 77 -40 0 c-65
1 -83 11 -89 53 -3 20 -5 119 -5 220 l2 182 63 0 64 0 0 75 0 75 -50 1 c-27 1
-56 2 -62 3 -13 1 -15 22 -17 133 l-1 51 -100 0 c-96 1 -100 0 -101 -21z"/>
</g>
</svg>
